<svg width="1440" height="713" viewBox="0 0 1440 713" fill="none" xmlns="http://www.w3.org/2000/svg">
<g filter="url(#filter0_d_171_740)">
<mask id="mask0_171_740" style="mask-type:alpha" maskUnits="userSpaceOnUse" x="-3127" y="0" width="7829" height="705">
<rect x="-3126.93" width="7827.93" height="705" fill="url(#paint0_linear_171_740)"/>
</mask>
<g mask="url(#mask0_171_740)">
<path d="M184.261 2.41687H246.529H308.057H369.584H431.111H492.638H554.166H615.693H677.22H738.747H800.275H861.802H923.329H984.856H1046.38H1107.91H1169.44H1230.97H1292.49H1354.02H1416.29" stroke="#D7D7D7"/>
<path d="M162.001 4.83374H225.752H289.503H353.254H417.747H481.498H545.249H609H672.751H736.502H800.254H864.005H927.756H991.507H1055.26H1119.01H1182.76H1247.25H1311H1374.76H1438.51" stroke="#D7D7D7"/>
<path d="M138.319 7.25049H204.294H270.269H336.986H402.961H468.936H535.652H601.627H667.602H734.318H800.293H866.268H932.985H998.96H1064.93H1131.65H1197.63H1263.6H1330.32H1396.29H1462.27" stroke="#D7D7D7"/>
<path d="M112.378 9.66736H180.577H249.517H318.457H387.397H456.338H525.278H593.477H662.417H731.357H800.297H869.237H938.178H1007.12H1075.32H1144.26H1213.2H1282.14H1351.08H1420.02H1488.22" stroke="#D7D7D7"/>
<path d="M84.29 13.2924H155.454H227.359H299.265H370.429H442.334H513.498H585.404H657.309H728.473H800.378H872.284H943.448H1015.35H1087.26H1158.42H1230.33H1301.49H1373.4H1445.3H1516.47" stroke="#D7D7D7"/>
<path d="M52.9463 16.9174H127.817H202.687H277.558H351.687H426.558H501.428H576.299H650.428H725.298H800.169H875.04H949.91H1024.04H1098.91H1173.78H1248.65H1322.78H1397.65H1472.52H1547.39" stroke="#D7D7D7"/>
<path d="M19.6689 20.5424H98.2459H176.082H253.917H331.753H410.33H488.166H566.001H643.837H722.414H800.25H878.085H956.662H1034.5H1112.33H1190.17H1268.75H1346.58H1424.42H1502.25H1580.83" stroke="#D7D7D7"/>
<path d="M-16.6221 24.1674H65.6614H147.204H228.746H310.288H391.83H473.372H555.655H637.198H718.74H800.282H881.824H963.366H1044.91H1127.19H1208.73H1290.28H1371.82H1453.36H1534.9H1617.19" stroke="#D7D7D7"/>
<path d="M-55.9971 29.0005H29.2515H115.241H200.49H286.48H371.728H457.718H542.967H628.957H714.205H800.195H886.185H971.434H1057.42H1142.67H1228.66H1313.91H1399.9H1485.15H1571.14H1656.39" stroke="#D7D7D7"/>
<path d="M-100.425 33.8342H-9.98714H79.7092H170.147H259.843H350.281H439.977H530.415H620.111H710.549H800.245H889.942H980.379H1070.08H1160.51H1250.21H1340.65H1430.34H1520.78H1610.48H1700.92" stroke="#D7D7D7"/>
<path d="M-149.413 39.876H-54.5277H40.3577H135.243H230.87H325.755H420.641H515.526H610.411H705.297H800.182H895.068H989.953H1084.84H1179.72H1274.61H1369.49H1465.12H1560.01H1654.89H1749.78" stroke="#D7D7D7"/>
<path d="M-203.376 45.9185H-103.302H-2.4858H97.5887H197.663H298.479H398.553H499.369H599.443H700.259H800.334H900.408H1001.22H1101.3H1202.11H1302.19H1403H1503.08H1603.15H1703.97H1804.04" stroke="#D7D7D7"/>
<path d="M-264.915 53.1685H-158.169H-51.4229H54.5819H161.328H268.074H374.079H480.825H587.571H693.576H800.322H907.068H1013.07H1119.82H1226.56H1332.57H1439.32H1546.06H1652.07H1758.81H1865.56" stroke="#D7D7D7"/>
<path d="M-333.905 60.4185H-220.488H-107.07H6.34783H119.766H233.183H346.601H460.019H573.436H686.854H800.272H913.689H1027.11H1140.52H1253.94H1367.36H1480.78H1594.2H1707.61H1821.03H1934.45" stroke="#D7D7D7"/>
<path d="M-411.731 68.8771H-290.901H-169.329H-48.4982H73.0738H193.904H315.476H436.307H557.879H678.71H800.282H921.854H1042.68H1164.26H1285.09H1406.66H1527.49H1649.06H1769.89H1891.46H2012.29" stroke="#D7D7D7"/>
<path d="M-502.144 79.7521H-371.676H-241.95H-111.483H18.9849H148.711H279.178H409.646H540.113H669.839H800.307H930.774H1060.5H1190.97H1321.44H1451.9H1581.63H1712.1H1842.56H1972.29H2102.76" stroke="#D7D7D7"/>
<path d="M-606.728 91.8363H-466.623H-325.778H-184.932H-44.0868H96.7587H237.604H377.708H518.554H659.399H800.245H941.09H1081.94H1222.78H1362.89H1503.73H1644.58H1785.42H1926.27H2067.11H2207.22" stroke="#D7D7D7"/>
<path d="M-729.731 105.129H-577.025H-423.578H-270.872H-118.165H35.2822H187.988H341.436H494.142H647.59H800.296H953.002H1106.45H1259.16H1412.6H1565.31H1718.76H1871.46H2024.17H2177.62H2330.32" stroke="#D7D7D7"/>
<path d="M-876.47 122.046H-708.938H-541.406H-373.132H-205.6H-38.0681H129.464H296.996H465.269H632.802H800.334H967.866H1135.4H1303.67H1471.2H1638.74H1806.27H1973.8H2142.07H2309.6H2477.14" stroke="#D7D7D7"/>
<path d="M-1053.71 141.38H-868.385H-683.062H-497.739H-312.416H-127.092H58.2306H244.295H429.618H614.941H800.264H985.588H1170.91H1356.23H1542.3H1727.62H1912.94H2098.27H2283.59H2468.91H2654.24" stroke="#D7D7D7"/>
<path d="M-1273.88 166.755H-1066.31H-858.752H-651.191H-444.37H-236.808H-29.2463H178.315H385.136H592.698H800.259H1007.82H1215.38H1422.2H1629.77H1837.33H2044.89H2251.71H2459.27H2666.83H2874.39" stroke="#D7D7D7"/>
<path d="M-1551.88 198.173H-1316.89H-1081.9H-846.166H-611.176H-376.186H-140.455H94.5341H329.524H565.255H800.244H1035.23H1270.96H1505.95H1740.94H1976.68H2211.66H2446.65H2682.39H2917.38H3152.36" stroke="#D7D7D7"/>
<path d="M-1917.33 239.257H-1645.28H-1373.97H-1101.91H-830.599H-558.544H-286.49H-15.1772H256.877H528.19H800.244H1072.3H1343.61H1615.67H1886.98H2159.03H2431.09H2702.4H2974.45H3245.77H3517.82" stroke="#D7D7D7"/>
<path d="M-2343.16 296.051H-2094.48H-1772.76H-1451.78H-1130.06H-808.337H-486.617H-164.896H156.825H478.546H800.267H1121.99H1443.71H1765.43H2087.15H2408.87H2730.59H3052.31H3373.29H3695.01H3937.13" stroke="#D7D7D7"/>
<path d="M-3025.8 377.012H-2746.07H-2352.44H-1958.07H-1564.45H-1170.08H-775.714H-382.088H12.2799H405.906H800.273H1194.64H1588.27H1982.63H2376.26H2770.63H3165H3558.62H3952.99H4346.62H4626.6" stroke="#D7D7D7"/>
<path d="M-4284.3 506.307H-3776.52H-3267.99H-2759.47H-2250.94H-1742.41H-1233.89H-725.36H-216.834H291.693H800.22H1308.75H1817.27H2325.8H2834.33H3342.85H3851.38H4359.91H4868.43H5376.96H5884.74" stroke="#D7D7D7"/>
<path d="M222.056 0L193.145 2.4167L161.27 6.04185L125.688 10.8754L85.6577 15.7089L41.1801 20.5423L-9.2272 26.5841L-67.0484 32.626L-133.024 41.0846L-210.859 49.5432L-302.78 60.4185L-412.49 73.7106L-546.664 88.2111L-714.197 108.753L-929.913 132.921L-1216.79 166.755L-1617.83 212.673L-2217.54 282.759L-3213.09 398.762L-5188.64 627.144L-10995.9 1301.42" stroke="#D7D7D7"/>
<path d="M238.367 0L210.198 2.4167L179.064 6.04185L144.223 10.8754L106.417 15.7089L62.681 20.5423L13.7559 26.5841L-42.5821 32.626L-107.075 41.0846L-182.687 49.5432L-271.642 60.4185L-378.388 73.7106L-508.855 88.2111L-671.939 108.753L-880.984 132.921L-1159.71 166.755L-1549.63 212.673L-2132.29 282.759L-3099.67 398.762L-5020.36 627.144L-10663.8 1301.42" stroke="#D7D7D7"/>
<path d="M254.644 0L227.215 2.4167L196.823 6.04185L163.464 10.8754L126.4 15.7089L84.1464 20.5423L36.7036 26.5841L-18.1523 32.626L-80.421 41.0846L-153.808 49.5432L-240.54 60.4185L-344.321 73.7106L-471.082 88.2111L-628.977 108.753L-832.833 132.921L-1103.4 166.755L-1481.46 212.673L-2047.81 282.759L-2987.03 398.762L-4851.38 627.144L-10331.8 1301.42" stroke="#D7D7D7"/>
<path d="M270.959 0L244.273 2.4167L215.362 6.04185L182.745 10.8754L146.423 15.7089L105.652 20.5423L58.9498 26.5841L6.31823 32.626L-54.4683 41.0846L-125.632 49.5432L-209.398 60.4185L-310.214 73.7106L-433.268 88.2111L-586.716 108.753L-783.899 132.921L-1046.32 166.755L-1413.26 212.673L-1962.55 282.759L-2873.6 398.762L-4682.36 627.144L-9998.9 1301.42" stroke="#D7D7D7"/>
<path d="M287.309 0L261.364 2.4167L233.194 6.04185L201.318 10.8754L166.478 15.7089L127.189 20.5423L81.9704 26.5841L30.821 32.626L-27.7403 41.0846L-96.6809 49.5432L-178.223 60.4185L-276.073 73.7106L-394.68 88.2111L-543.68 108.753L-734.933 132.921L-989.197 166.755L-1345.02 212.673L-1877.26 282.759L-2760.89 398.762L-4514.04 627.144L-9666.76 1301.42" stroke="#D7D7D7"/>
<path d="M303.681 0L278.477 2.4167L251.05 6.04185L220.657 10.8754L186.557 15.7089L148.01 20.5423L105.015 26.5841L55.3484 32.626L-1.73071 41.0846L-68.447 49.5432L-147.025 60.4185L-241.91 73.7106L-356.81 88.2111L-501.362 108.753L-685.944 132.921L-932.795 166.755L-1276.75 212.673L-1792.69 282.759L-2647.4 398.762L-4344.96 627.144L-9334.6 1301.42" stroke="#D7D7D7"/>
<path d="M319.865 0L295.403 2.4167L268.717 6.04185L239.806 10.8754L206.448 15.7089L169.384 20.5423L127.871 26.5841L79.6875 32.626L24.0905 41.0846L-39.6613 49.5432L-116.014 60.4185L-207.193 73.7106L-319.128 88.2111L-458.491 108.753L-637.884 132.921L-875.838 166.755L-1209.42 212.673L-1707.57 282.759L-2534.85 398.762L-4176.81 627.144L-9002.62 1301.42" stroke="#D7D7D7"/>
<path d="M336.222 0L312.5 2.4167L287.297 6.04185L258.386 10.8754L226.51 15.7089L190.929 20.5423L150.158 26.5841L104.197 32.626L50.8242 41.0846L-11.4445 49.5432L-84.8326 60.4185L-173.047 73.7106L-281.275 88.2111L-415.449 108.753L-588.911 132.921L-818.712 166.755L-1141.17 212.673L-1622.27 282.759L-2421.39 398.762L-4007.75 627.144L-8669.74 1301.42" stroke="#D7D7D7"/>
<path d="M352.619 0L329.639 2.4167L305.176 6.04185L277.748 10.8754L247.355 15.7089L212.514 20.5423L173.226 26.5841L128.749 32.626L76.8583 41.0846L16.8138 49.5432L-53.609 60.4185L-138.858 73.7106L-243.381 88.2111L-373.107 108.753L-539.897 132.921L-762.285 166.755L-1072.89 212.673L-1537.68 282.759L-2308.62 398.762L-3838.65 627.144L-8337.55 1301.42" stroke="#D7D7D7"/>
<path d="M368.846 0L346.607 2.4167L322.885 6.04185L296.94 10.8754L267.289 15.7089L233.93 20.5423L196.125 26.5841L153.129 32.626L103.463 41.0846L45.642 49.5432L-23.2976 60.4185L-104.84 73.7106L-204.914 88.2111L-330.193 108.753L-491.053 132.921L-705.286 166.755L-1004.77 212.673L-1452.51 282.759L-2195.28 398.762L-3670.45 627.144L-8005.53 1301.42" stroke="#D7D7D7"/>
<path d="M384.426 0L364.411 2.4167L341.431 6.04185L315.486 10.8754L287.317 15.7089L255.441 20.5423L219.118 26.5841L177.606 32.626L129.422 41.0846L73.8246 49.5432L7.84942 60.4185L-70.7274 73.7106L-167.095 88.2111L-287.926 108.753L-442.856 132.921L-648.935 166.755L-936.557 212.673L-1367.25 282.759L-2082.6 398.762L-3501.43 627.144L-7673.42 1301.42" stroke="#D7D7D7"/>
<path d="M400.733 0L381.458 2.4167L359.22 6.04185L334.758 10.8754L307.329 15.7089L276.936 20.5423L242.096 26.5841L202.066 32.626L156.106 41.0846L102.733 49.5432L38.9817 60.4185L-36.6302 73.7106L-129.292 88.2111L-244.933 108.753L-393.933 132.921L-591.858 166.755L-868.36 212.673L-1282 282.759L-1969.18 398.762L-3333.16 627.144L-7340.58 1301.42" stroke="#D7D7D7"/>
<path d="M417.072 0L398.54 2.4167L377.042 6.04185L354.062 10.8754L327.376 15.7089L297.724 20.5423L264.366 26.5841L226.56 32.626L182.082 41.0846L130.933 49.5432L70.1473 60.4185L-2.49923 73.7106L-91.4543 88.2111L-202.648 108.753L-344.976 132.921L-534.747 166.755L-800.13 212.673L-1197.46 282.759L-1856.47 398.762L-3164.11 627.144L-7008.45 1301.42" stroke="#D7D7D7"/>
<path d="M433.37 0L415.579 2.4167L394.823 6.04185L372.584 10.8754L347.38 15.7089L319.211 20.5423L287.335 26.5841L251.012 32.626L208.758 41.0846L159.092 49.5432L101.271 60.4185L31.5895 73.7106L-53.6591 88.2111L-159.664 108.753L-296.062 132.921L-478.419 166.755L-731.941 212.673L-1112.22 282.759L-1743.06 398.762L-2995.85 627.144L-6676.36 1301.42" stroke="#D7D7D7"/>
<path d="M449.634 0L432.585 2.4167L413.311 6.04185L391.814 10.8754L367.351 15.7089L340.664 20.5423L310.271 26.5841L275.431 32.626L234.66 41.0846L187.958 49.5432L132.361 60.4185L65.645 73.7106L-15.8971 88.2111L-117.454 108.753L-247.922 132.921L-421.384 166.755L-663.787 212.673L-1027.02 282.759L-1630.43 398.762L-2826.88 627.144L-6343.57 1301.42" stroke="#D7D7D7"/>
<path d="M465.979 0L449.67 2.4167L431.138 6.04185L410.382 10.8754L388.143 15.7089L362.198 20.5423L333.287 26.5841L299.929 32.626L261.382 41.0846L216.163 49.5432L163.531 60.4185L99.7804 73.7106L22.6858 88.2111L-74.4233 108.753L-198.96 132.921L-364.268 166.755L-596.293 212.673L-942.476 282.759L-1516.98 398.762L-2657.83 627.144L-6011.43 1301.42" stroke="#D7D7D7"/>
<path d="M482.24 0L466.673 2.4167L448.882 6.04185L429.609 10.8754L408.111 15.7089L383.648 20.5423L355.479 26.5841L324.345 32.626L287.28 41.0846L245.027 49.5432L194.619 60.4185L133.833 73.7106L60.4452 88.2111L-31.4752 108.753L-150.082 132.921L-307.977 166.755L-528.141 212.673L-857.275 282.759L-1404.35 398.762L-2489.6 627.144L-5679.38 1301.42" stroke="#D7D7D7"/>
<path d="M498.493 0L483.667 2.4167L467.358 6.04185L448.826 10.8754L428.07 15.7089L405.09 20.5423L378.403 26.5841L348.011 32.626L313.911 41.0846L273.14 49.5432L225.697 60.4185L167.877 73.7106L98.195 88.2111L10.7226 108.753L-101.212 132.921L-250.953 166.755L-459.998 212.673L-772.082 282.759L-1290.99 398.762L-2320.64 627.144L-5347.34 1301.42" stroke="#D7D7D7"/>
<path d="M514.882 0L500.798 2.4167L485.231 6.04185L467.439 10.8754L448.166 15.7089L425.927 20.5423L401.465 26.5841L372.554 32.626L339.937 41.0846L302.131 49.5432L256.913 60.4185L202.798 73.7106L136.082 88.2111L53.7985 108.753L-52.9473 132.921L-193.793 166.755L-391.718 212.673L-687.494 282.759L-1178.23 398.762L-2152.29 627.144L-5014.42 1301.42" stroke="#D7D7D7"/>
<path d="M531.169 0L517.826 2.4167L503 6.04185L486.691 10.8754L468.159 15.7089L447.403 20.5423L424.423 26.5841L396.995 32.626L366.602 41.0846L330.278 49.5432L288.025 60.4185L236.876 73.7106L173.866 88.2111L96.0302 108.753L-4.04422 132.921L-137.477 166.755L-323.541 212.673L-602.267 282.759L-1064.83 398.762L-1983.29 627.144L-4682.34 1301.42" stroke="#D7D7D7"/>
<path d="M547.496 0L534.894 2.4167L520.809 6.04185L505.983 10.8754L488.193 15.7089L468.919 20.5423L446.68 26.5841L421.476 32.626L392.566 41.0846L358.466 49.5432L318.437 60.4185L270.994 73.7106L212.432 88.2111L139.044 108.753L44.8996 132.921L-80.3785 166.755L-255.324 212.673L-517 282.759L-952.138 398.762L-1814.26 627.144L-4350.22 1301.42" stroke="#D7D7D7"/>
<path d="M563.733 0L551.873 2.4167L539.27 6.04185L524.445 10.8754L508.136 15.7089L490.345 20.5423L469.589 26.5841L445.868 32.626L419.181 41.0846L387.306 49.5432L349.5 60.4185L305.022 73.7106L250.166 88.2111L181.226 108.753L93.754 132.921L-23.3701 166.755L-187.196 212.673L-432.563 282.759L-838.792 398.762L-1646.06 627.144L-4018.19 1301.42" stroke="#D7D7D7"/>
<path d="M580.083 0L568.964 2.4167L557.103 6.04185L543.759 10.8754L528.934 15.7089L511.884 20.5423L492.61 26.5841L470.371 32.626L445.168 41.0846L415.516 49.5432L380.675 60.4185L339.163 73.7106L288.014 88.2111L224.263 108.753L141.979 132.921L33.0092 166.755L-118.956 212.673L-347.274 282.759L-726.074 398.762L-1477 627.144L-3685.31 1301.42" stroke="#D7D7D7"/>
<path d="M596.4 0L586.763 2.4167L574.902 6.04185L563.042 10.8754L548.957 15.7089L533.39 20.5423L515.599 26.5841L494.843 32.626L471.863 41.0846L444.435 49.5432L411.818 60.4185L373.271 73.7106L325.828 88.2111L266.525 108.753L190.913 132.921L90.0976 166.755L-51.4893 212.673L-262.016 282.759L-612.648 398.762L-1308.72 627.144L-3353.21 1301.42" stroke="#D7D7D7"/>
<path d="M612.661 0L603.766 2.4167L593.387 6.04185L581.527 10.8754L568.925 15.7089L554.099 20.5423L537.791 26.5841L519.258 32.626L497.761 41.0846L472.557 49.5432L442.905 60.4185L407.323 73.7106L363.587 88.2111L309.472 108.753L239.791 132.921L147.13 166.755L16.6621 212.673L-177.556 282.759L-500.018 398.762L-1139.75 627.144L-3021.15 1301.42" stroke="#D7D7D7"/>
<path d="M629.058 0L620.904 2.4167L611.267 6.04185L600.889 10.8754L589.029 15.7089L575.685 20.5423L560.86 26.5841L543.81 32.626L524.536 41.0846L501.556 49.5432L474.128 60.4185L441.511 73.7106L402.223 88.2111L352.556 108.753L288.805 132.921L203.557 166.755L84.9498 212.673L-92.219 282.759L-386.512 398.762L-971.392 627.144L-2688.97 1301.42" stroke="#D7D7D7"/>
<path d="M645.337 0L637.924 2.4167L629.028 6.04185L619.392 10.8754L609.014 15.7089L597.153 20.5423L583.81 26.5841L568.243 32.626L550.451 41.0846L529.695 49.5432L505.233 60.4185L475.581 73.7106L439.999 88.2111L394.78 108.753L336.959 132.921L260.606 166.755L153.119 212.673L-7.00022 282.759L-273.865 398.762L-802.407 627.144L-2356.16 1301.42" stroke="#D7D7D7"/>
<path d="M661.566 0L654.894 2.4167L647.481 6.04185L638.586 10.8754L628.949 15.7089L618.571 20.5423L606.71 26.5841L592.626 32.626L576.317 41.0846L557.785 49.5432L536.288 60.4185L509.601 73.7106L477.726 88.2111L437.696 108.753L385.805 132.921L316.865 166.755L221.238 212.673L77.4278 282.759L-160.527 398.762L-633.471 627.144L-2024.14 1301.42" stroke="#D7D7D7"/>
<path d="M677.996 0L672.066 2.4167L665.394 6.04185L657.981 10.8754L649.085 15.7089L640.19 20.5423L629.071 26.5841L617.21 32.626L603.125 41.0846L586.817 49.5432L567.543 60.4185L543.822 73.7106L515.653 88.2111L480.071 108.753L434.852 132.921L374.066 166.755L289.559 212.673L162.798 282.759L-47.729 398.762L-465.077 627.144L-1691.92 1301.42" stroke="#D7D7D7"/>
<path d="M694.262 0L689.073 2.4167L683.143 6.04185L676.471 10.8754L669.799 15.7089L661.645 20.5423L652.008 26.5841L641.63 32.626L629.028 41.0846L614.944 49.5432L598.636 60.4185L577.879 73.7106L553.416 88.2111L523.024 108.753L483.735 132.921L431.103 166.755L357.715 212.673L248.004 282.759L65.6463 398.762L-296.104 627.144L-1359.86 1301.42" stroke="#D7D7D7"/>
<path d="M710.502 0L706.054 2.4167L700.865 6.04185L695.676 10.8754L689.746 15.7089L682.333 20.5423L674.92 26.5841L666.025 32.626L655.646 41.0846L643.786 49.5432L629.701 60.4185L612.651 73.7106L591.154 88.2111L565.209 108.753L531.851 132.921L487.373 166.755L425.846 212.673L332.443 282.759L178.254 398.762L-127.899 627.144L-1027.09 1301.42" stroke="#D7D7D7"/>
<path d="M726.938 0L723.232 2.4167L719.525 6.04185L715.077 10.8754L709.888 15.7089L703.958 20.5423L698.028 26.5841L690.615 32.626L681.719 41.0846L672.082 49.5432L660.222 60.4185L646.879 73.7106L629.829 88.2111L608.331 108.753L580.904 132.921L544.58 166.755L494.172 212.673L417.819 282.759L291.8 398.762L41.2428 627.144L-694.86 1301.42" stroke="#D7D7D7"/>
<path d="M743.2 0L740.235 2.4167L737.27 6.04185L733.564 10.8754L729.857 15.7089L725.409 20.5423L720.22 26.5841L715.031 32.626L708.36 41.0846L700.947 49.5432L691.31 60.4185L680.932 73.7106L667.589 88.2111L651.28 108.753L629.783 132.921L601.614 166.755L561.584 212.673L503.022 282.759L404.43 398.762L209.47 627.144L-362.808 1301.42" stroke="#D7D7D7"/>
<path d="M759.511 0L757.288 2.4167L755.064 6.04185L752.84 10.8754L749.875 15.7089L746.909 20.5423L743.203 26.5841L739.497 32.626L734.307 41.0846L729.118 49.5432L722.447 60.4185L715.034 73.7106L705.397 88.2111L693.536 108.753L678.711 132.921L657.954 166.755L629.785 212.673L587.532 282.759L517.85 398.762L378.487 627.144L-30.7061 1301.42" stroke="#D7D7D7"/>
<path d="M775.833 0L774.351 2.4167L773.609 6.04185L772.127 10.8754L769.903 15.7089L768.42 20.5423L766.196 26.5841L763.973 32.626L761.007 41.0846L757.301 49.5432L753.594 60.4185L749.147 73.7106L743.216 88.2111L736.545 108.753L726.908 132.921L715.047 166.755L697.997 212.673L672.794 282.759L630.54 398.762L547.515 627.144L302.147 1301.42" stroke="#D7D7D7"/>
<path d="M792.129 0L791.387 2.4167V6.04185L790.646 10.8754L789.905 15.7089V20.5423L789.163 26.5841L788.422 32.626L786.94 41.0846L786.198 49.5432L784.716 60.4185L783.233 73.7106L781.009 88.2111L778.785 108.753L775.82 132.921L772.114 166.755L766.183 212.673L758.029 282.759L743.945 398.762L715.776 627.144L634.233 1301.42" stroke="#D7D7D7"/>
<path d="M808.349 0L809.09 2.4167V6.04185L809.831 10.8754L810.572 15.7089V20.5423L811.314 26.5841L812.055 32.626L813.538 41.0846L814.279 49.5432L815.762 60.4185L817.244 73.7106L819.468 88.2111L821.692 108.753L824.657 132.921L828.363 166.755L834.294 212.673L842.448 282.759L856.533 398.762L884.702 627.144L966.244 1301.42" stroke="#D7D7D7"/>
<path d="M824.724 0L826.206 2.4167L826.948 6.04185L828.43 10.8754L830.654 15.7089L832.137 20.5423L834.36 26.5841L836.584 32.626L839.549 41.0846L843.256 49.5432L846.962 60.4185L851.41 73.7106L857.34 88.2111L864.012 108.753L873.649 132.921L885.51 166.755L902.559 212.673L927.763 282.759L970.017 398.762L1053.04 627.144L1298.41 1301.42" stroke="#D7D7D7"/>
<path d="M841.007 0L843.231 2.4167L845.455 6.04185L847.678 10.8754L850.644 15.7089L853.609 20.5423L857.315 26.5841L861.022 32.626L866.211 41.0846L871.4 49.5432L878.071 60.4185L885.484 73.7106L895.121 88.2111L906.982 108.753L921.808 132.921L942.564 166.755L970.733 212.673L1012.99 282.759L1082.67 398.762L1222.03 627.144L1631.22 1301.42" stroke="#D7D7D7"/>
<path d="M857.356 0L860.322 2.4167L863.287 6.04185L866.993 10.8754L870.7 15.7089L875.148 20.5423L880.337 26.5841L885.526 32.626L892.197 41.0846L899.61 49.5432L909.247 60.4185L919.625 73.7106L932.968 88.2111L949.277 108.753L970.774 132.921L998.943 166.755L1038.97 212.673L1097.54 282.759L1196.13 398.762L1391.09 627.144L1963.36 1301.42" stroke="#D7D7D7"/>
<path d="M873.655 0L877.362 2.4167L881.068 6.04185L885.516 10.8754L890.705 15.7089L896.635 20.5423L902.566 26.5841L909.979 32.626L918.874 41.0846L928.511 49.5432L940.372 60.4185L953.715 73.7106L970.765 88.2111L992.262 108.753L1019.69 132.921L1056.01 166.755L1106.42 212.673L1182.77 282.759L1308.79 398.762L1559.35 627.144L2295.45 1301.42" stroke="#D7D7D7"/>
<path d="M889.989 0L894.437 2.4167L899.626 6.04185L904.815 10.8754L910.745 15.7089L918.158 20.5423L925.571 26.5841L934.467 32.626L944.845 41.0846L956.706 49.5432L970.79 60.4185L987.84 73.7106L1009.34 88.2111L1035.28 108.753L1068.64 132.921L1113.12 166.755L1174.65 212.673L1268.05 282.759L1422.24 398.762L1728.39 627.144L2627.58 1301.42" stroke="#D7D7D7"/>
<path d="M906.286 0L911.475 2.4167L917.406 6.04185L924.077 10.8754L930.749 15.7089L938.903 20.5423L948.54 26.5841L958.918 32.626L971.52 41.0846L985.604 49.5432L1001.91 60.4185L1022.67 73.7106L1047.13 88.2111L1077.52 108.753L1116.81 132.921L1169.44 166.755L1242.83 212.673L1352.54 282.759L1534.9 398.762L1896.65 627.144L2960.41 1301.42" stroke="#D7D7D7"/>
<path d="M922.528 0L928.459 2.4167L935.13 6.04185L942.543 10.8754L951.439 15.7089L960.334 20.5423L971.454 26.5841L983.314 32.626L997.399 41.0846L1013.71 49.5432L1032.98 60.4185L1056.7 73.7106L1084.87 88.2111L1120.45 108.753L1165.67 132.921L1226.46 166.755L1310.97 212.673L1437.73 282.759L1648.25 398.762L2065.6 627.144L3292.44 1301.42" stroke="#D7D7D7"/>
<path d="M938.896 0L945.567 2.4167L952.98 6.04185L961.876 10.8754L971.512 15.7089L981.89 20.5423L993.751 26.5841L1007.84 32.626L1024.14 41.0846L1042.68 49.5432L1064.17 60.4185L1090.86 73.7106L1122.74 88.2111L1162.77 108.753L1214.66 132.921L1283.6 166.755L1379.22 212.673L1523.03 282.759L1760.99 398.762L2233.93 627.144L3624.6 1301.42" stroke="#D7D7D7"/>
<path d="M955.144 0L962.556 2.4167L971.452 6.04185L981.089 10.8754L991.467 15.7089L1003.33 20.5423L1016.67 26.5841L1032.24 32.626L1050.03 41.0846L1070.79 49.5432L1095.25 60.4185L1124.9 73.7106L1160.48 88.2111L1205.7 108.753L1263.52 132.921L1339.87 166.755L1447.36 212.673L1607.48 282.759L1874.35 398.762L2402.89 627.144L3956.64 1301.42" stroke="#D7D7D7"/>
<path d="M971.409 0L979.563 2.4167L989.2 6.04185L999.578 10.8754L1011.44 15.7089L1024.78 20.5423L1039.61 26.5841L1056.66 32.626L1075.93 41.0846L1098.91 49.5432L1126.34 60.4185L1158.96 73.7106L1198.24 88.2111L1247.91 108.753L1311.66 132.921L1396.91 166.755L1515.52 212.673L1692.69 282.759L1986.98 398.762L2571.86 627.144L4289.43 1301.42" stroke="#D7D7D7"/>
<path d="M987.833 0L996.728 2.4167L1007.11 6.04185L1018.97 10.8754L1031.57 15.7089L1046.4 20.5423L1062.7 26.5841L1081.24 32.626L1102.73 41.0846L1127.94 49.5432L1157.59 60.4185L1193.17 73.7106L1236.91 88.2111L1291.02 108.753L1360.7 132.921L1453.36 166.755L1583.83 212.673L1778.05 282.759L2100.51 398.762L2740.25 627.144L4621.65 1301.42" stroke="#D7D7D7"/>
<path d="M1004.17 0L1013.81 2.4167L1025.67 6.04185L1037.53 10.8754L1051.62 15.7089L1067.18 20.5423L1084.98 26.5841L1105.73 32.626L1128.71 41.0846L1156.14 49.5432L1188.76 60.4185L1227.3 73.7106L1274.75 88.2111L1334.05 108.753L1409.66 132.921L1510.48 166.755L1652.06 212.673L1862.59 282.759L2213.22 398.762L2909.3 627.144L4953.78 1301.42" stroke="#D7D7D7"/>
<path d="M1020.41 0L1031.53 2.4167L1043.39 6.04185L1056.73 10.8754L1071.56 15.7089L1088.61 20.5423L1107.88 26.5841L1130.12 32.626L1155.32 41.0846L1184.97 49.5432L1219.81 60.4185L1261.33 73.7106L1312.48 88.2111L1376.23 108.753L1458.51 132.921L1567.48 166.755L1719.45 212.673L1947.76 282.759L2326.56 398.762L3077.49 627.144L5285.8 1301.42" stroke="#D7D7D7"/>
<path d="M1036.7 0L1048.56 2.4167L1061.16 6.04185L1075.99 10.8754L1092.3 15.7089L1110.09 20.5423L1130.84 26.5841L1154.56 32.626L1181.25 41.0846L1213.13 49.5432L1250.93 60.4185L1295.41 73.7106L1350.26 88.2111L1419.21 108.753L1506.68 132.921L1623.8 166.755L1787.63 212.673L2032.99 282.759L2439.22 398.762L3246.49 627.144L5618.63 1301.42" stroke="#D7D7D7"/>
<path d="M1053 0L1065.6 2.4167L1079.68 6.04185L1094.51 10.8754L1112.3 15.7089L1131.57 20.5423L1153.81 26.5841L1179.02 32.626L1207.93 41.0846L1242.03 49.5432L1282.06 60.4185L1329.5 73.7106L1388.06 88.2111L1461.45 108.753L1555.59 132.921L1680.87 166.755L1855.82 212.673L2117.49 282.759L2552.63 398.762L3414.75 627.144L5950.71 1301.42" stroke="#D7D7D7"/>
<path d="M1069.35 0L1082.69 2.4167L1097.52 6.04185L1113.82 10.8754L1132.36 15.7089L1153.11 20.5423L1176.09 26.5841L1203.52 32.626L1233.91 41.0846L1270.24 49.5432L1312.49 60.4185L1363.64 73.7106L1426.65 88.2111L1504.49 108.753L1604.56 132.921L1737.99 166.755L1924.06 212.673L2202.78 282.759L2665.35 398.762L3583.81 627.144L6282.85 1301.42" stroke="#D7D7D7"/>
<path d="M1085.66 0L1099.75 2.4167L1115.31 6.04185L1133.1 10.8754L1152.38 15.7089L1174.62 20.5423L1199.08 26.5841L1227.99 32.626L1260.61 41.0846L1298.41 49.5432L1343.63 60.4185L1397.75 73.7106L1464.46 88.2111L1546.74 108.753L1653.49 132.921L1794.34 166.755L1992.26 212.673L2288.04 282.759L2778.77 398.762L3752.83 627.144L6614.96 1301.42" stroke="#D7D7D7"/>
<path d="M1102.06 0L1116.89 2.4167L1133.2 6.04185L1151.73 10.8754L1172.48 15.7089L1195.46 20.5423L1222.15 26.5841L1252.54 32.626L1286.64 41.0846L1327.41 49.5432L1374.86 60.4185L1432.68 73.7106L1502.36 88.2111L1589.83 108.753L1701.77 132.921L1851.51 166.755L2060.55 212.673L2372.64 282.759L2891.54 398.762L3921.2 627.144L6947.89 1301.42" stroke="#D7D7D7"/>
<path d="M1118.4 0L1133.96 2.4167L1151.75 6.04185L1171.03 10.8754L1192.52 15.7089L1216.99 20.5423L1245.16 26.5841L1276.29 32.626L1313.36 41.0846L1355.61 49.5432L1406.02 60.4185L1466.8 73.7106L1540.19 88.2111L1632.11 108.753L1750.72 132.921L1908.61 166.755L2128.78 212.673L2457.91 282.759L3004.98 398.762L4090.24 627.144L7280.02 1301.42" stroke="#D7D7D7"/>
<path d="M1134.62 0L1150.93 2.4167L1169.46 6.04185L1190.22 10.8754L1212.45 15.7089L1238.4 20.5423L1267.31 26.5841L1300.67 32.626L1339.21 41.0846L1384.43 49.5432L1437.07 60.4185L1500.82 73.7106L1577.91 88.2111L1675.02 108.753L1799.56 132.921L1964.87 166.755L2196.89 212.673L2543.07 282.759L3117.57 398.762L4258.42 627.144L7612.03 1301.42" stroke="#D7D7D7"/>
<path d="M1150.99 0L1168.04 2.4167L1187.31 6.04185L1208.81 10.8754L1233.27 15.7089L1259.96 20.5423L1290.35 26.5841L1325.19 32.626L1365.97 41.0846L1412.67 49.5432L1468.26 60.4185L1534.98 73.7106L1616.52 88.2111L1718.08 108.753L1848.55 132.921L2022.01 166.755L2264.41 212.673L2627.65 282.759L3231.06 398.762L4427.5 627.144L7944.19 1301.42" stroke="#D7D7D7"/>
<path d="M1167.25 0L1185.04 2.4167L1205.8 6.04185L1228.03 10.8754L1253.24 15.7089L1281.41 20.5423L1313.28 26.5841L1349.61 32.626L1391.86 41.0846L1441.53 49.5432L1499.35 60.4185L1569.03 73.7106L1654.28 88.2111L1760.28 108.753L1896.68 132.921L2079.04 166.755L2332.56 212.673L2712.84 282.759L3343.68 398.762L4596.47 627.144L8276.98 1301.42" stroke="#D7D7D7"/>
<path d="M1183.51 0L1202.05 2.4167L1223.54 6.04185L1246.52 10.8754L1273.21 15.7089L1302.86 20.5423L1336.22 26.5841L1374.03 32.626L1418.5 41.0846L1469.65 49.5432L1530.44 60.4185L1603.09 73.7106L1692.04 88.2111L1803.23 108.753L1945.56 132.921L2135.33 166.755L2400.72 212.673L2798.05 282.759L3457.06 398.762L4764.7 627.144L8609.04 1301.42" stroke="#D7D7D7"/>
<path d="M1199.83 0L1219.1 2.4167L1241.34 6.04185L1265.81 10.8754L1293.23 15.7089L1323.63 20.5423L1358.47 26.5841L1398.5 32.626L1444.46 41.0846L1497.83 49.5432L1561.58 60.4185L1637.19 73.7106L1729.86 88.2111L1845.5 108.753L1994.5 132.921L2192.42 166.755L2468.92 212.673L2882.56 282.759L3569.74 398.762L4933.72 627.144L8941.15 1301.42" stroke="#D7D7D7"/>
<path d="M1216.11 0L1236.12 2.4167L1259.1 6.04185L1285.05 10.8754L1313.22 15.7089L1345.09 20.5423L1381.41 26.5841L1422.93 32.626L1471.11 41.0846L1526.71 49.5432L1592.68 60.4185L1671.26 73.7106L1767.63 88.2111L1888.46 108.753L2043.39 132.921L2249.47 166.755L2537.09 212.673L2967.78 282.759L3683.13 398.762L5101.96 627.144L9273.95 1301.42" stroke="#D7D7D7"/>
<path d="M1231.77 0L1254.01 2.4167L1277.73 6.04185L1303.68 10.8754L1333.33 15.7089L1366.69 20.5423L1404.49 26.5841L1447.49 32.626L1497.15 41.0846L1554.97 49.5432L1623.91 60.4185L1705.46 73.7106L1805.53 88.2111L1930.81 108.753L2091.67 132.921L2305.9 166.755L2605.38 212.673L3053.13 282.759L3795.9 398.762L5271.07 627.144L9606.15 1301.42" stroke="#D7D7D7"/>
<path d="M1248.04 0L1271.02 2.4167L1295.49 6.04185L1322.91 10.8754L1353.31 15.7089L1388.15 20.5423L1427.44 26.5841L1471.91 32.626L1523.8 41.0846L1583.85 49.5432L1654.27 60.4185L1739.52 73.7106L1844.04 88.2111L1973.77 108.753L2140.56 132.921L2362.95 166.755L2673.55 212.673L3138.34 282.759L3909.28 398.762L5439.31 627.144L9938.21 1301.42" stroke="#D7D7D7"/>
<path d="M1264.39 0L1288.11 2.4167L1313.32 6.04185L1342.23 10.8754L1374.1 15.7089L1409.69 20.5423L1450.46 26.5841L1496.42 32.626L1549.79 41.0846L1612.06 49.5432L1685.45 60.4185L1773.66 73.7106L1881.89 88.2111L2016.06 108.753L2189.53 132.921L2419.33 166.755L2741.79 212.673L3222.89 282.759L4022 398.762L5608.37 627.144L10270.4 1301.42" stroke="#D7D7D7"/>
<path d="M1280.65 0L1305.11 2.4167L1331.8 6.04185L1360.71 10.8754L1394.07 15.7089L1431.13 20.5423L1472.65 26.5841L1520.83 32.626L1576.43 41.0846L1640.18 49.5432L1716.53 60.4185L1807.71 73.7106L1919.65 88.2111L2059.01 108.753L2238.4 132.921L2476.36 166.755L2809.94 212.673L3308.09 282.759L4135.37 398.762L5777.33 627.144L10603.1 1301.42" stroke="#D7D7D7"/>
<path d="M1296.92 0L1322.12 2.4167L1349.55 6.04185L1379.94 10.8754L1414.04 15.7089L1452.59 20.5423L1495.58 26.5841L1545.25 32.626L1602.33 41.0846L1669.05 49.5432L1747.62 60.4185L1842.51 73.7106L1957.41 88.2111L2101.96 108.753L2286.54 132.921L2533.39 166.755L2877.35 212.673L3393.29 282.759L4248 398.762L5945.56 627.144L10935.2 1301.42" stroke="#D7D7D7"/>
<path d="M1313.27 0L1339.22 2.4167L1367.39 6.04185L1399.26 10.8754L1434.1 15.7089L1473.39 20.5423L1518.61 26.5841L1569.76 32.626L1628.32 41.0846L1697.26 49.5432L1778.8 60.4185L1876.65 73.7106L1995.26 88.2111L2144.26 108.753L2335.51 132.921L2589.78 166.755L2945.6 212.673L3477.85 282.759L4361.47 398.762L6114.62 627.144L11267.3 1301.42" stroke="#D7D7D7"/>
<path d="M1329.53 0L1356.22 2.4167L1385.13 6.04185L1417.74 10.8754L1454.07 15.7089L1494.84 20.5423L1541.54 26.5841L1594.17 32.626L1654.96 41.0846L1726.12 49.5432L1809.89 60.4185L1910.7 73.7106L2033.76 88.2111L2187.21 108.753L2384.39 132.921L2646.81 166.755L3013.75 212.673L3563.04 282.759L4474.09 398.762L6282.84 627.144L11599.4 1301.42" stroke="#D7D7D7"/>
<path d="M1345.82 0L1373.25 2.4167L1403.64 6.04185L1437 10.8754L1474.07 15.7089L1516.32 20.5423L1563.76 26.5841L1618.62 32.626L1680.89 41.0846L1754.28 49.5432L1841.01 60.4185L1944.79 73.7106L2071.55 88.2111L2229.44 108.753L2433.3 132.921L2703.87 166.755L3081.93 212.673L3648.28 282.759L4587.49 398.762L6451.85 627.144L11932.2 1301.42" stroke="#D7D7D7"/>
<path d="M1362.18 0L1390.35 2.4167L1421.48 6.04185L1456.32 10.8754L1494.13 15.7089L1537.86 20.5423L1586.79 26.5841L1643.13 32.626L1707.62 41.0846L1783.23 49.5432L1872.19 60.4185L1978.93 73.7106L2109.4 88.2111L2272.49 108.753L2481.53 132.921L2760.26 166.755L3150.18 212.673L3732.83 282.759L4700.22 398.762L6620.91 627.144L12264.4 1301.42" stroke="#D7D7D7"/>
<path d="M1378.47 0L1407.38 2.4167L1439.26 6.04185L1474.84 10.8754L1514.87 15.7089L1559.35 20.5423L1609.75 26.5841L1667.58 32.626L1733.55 41.0846L1811.39 49.5432L1903.31 60.4185L2013.02 73.7106L2147.19 88.2111L2314.72 108.753L2530.44 132.921L2817.32 166.755L3218.36 212.673L3818.06 282.759L4813.62 398.762L6789.16 627.144L12596.4 1301.42" stroke="#D7D7D7"/>
</g>
</g>
<defs>
<filter id="filter0_d_171_740" x="-3130.93" y="0" width="7835.93" height="713" filterUnits="userSpaceOnUse" color-interpolation-filters="sRGB">
<feFlood flood-opacity="0" result="BackgroundImageFix"/>
<feColorMatrix in="SourceAlpha" type="matrix" values="0 0 0 0 0 0 0 0 0 0 0 0 0 0 0 0 0 0 127 0" result="hardAlpha"/>
<feOffset dy="4"/>
<feGaussianBlur stdDeviation="2"/>
<feComposite in2="hardAlpha" operator="out"/>
<feColorMatrix type="matrix" values="0 0 0 0 0 0 0 0 0 0 0 0 0 0 0 0 0 0 0.25 0"/>
<feBlend mode="normal" in2="BackgroundImageFix" result="effect1_dropShadow_171_740"/>
<feBlend mode="normal" in="SourceGraphic" in2="effect1_dropShadow_171_740" result="shape"/>
</filter>
<linearGradient id="paint0_linear_171_740" x1="806" y1="149.612" x2="806.001" y2="780.445" gradientUnits="userSpaceOnUse">
<stop stop-color="#737373" stop-opacity="0"/>
<stop offset="0.475835" stop-color="#737373"/>
<stop offset="1" stop-color="#D9D9D9" stop-opacity="0"/>
</linearGradient>
</defs>
</svg>
