<svg width="108" height="34" viewBox="0 0 108 34" fill="none" xmlns="http://www.w3.org/2000/svg">
<path d="M0.000854492 25.9754H8.97629V17C7.79763 16.9996 6.63048 17.2315 5.54167 17.6825C4.45287 18.1334 3.46382 18.7946 2.63118 19.628C0.948036 21.3126 0.00213619 23.5952 0.000854492 25.9754Z" fill="#211D1D"/>
<path d="M0.000854492 16.9996V8.02417H8.97629C8.97297 10.4058 8.02723 12.6892 6.34597 14.3747C5.51421 15.2102 4.52515 15.8725 3.43603 16.3231C2.3469 16.7736 1.17934 17.0035 0.000854492 16.9996Z" fill="#211D1D"/>
<path d="M8.97742 16.9996H17.9529V8.02417C15.5737 8.02417 13.292 8.96954 11.609 10.6525C9.92599 12.3355 8.97945 14.6185 8.97742 16.9996Z" fill="#211D1D"/>
<path d="M39.343 7.82955V11.8303H36.4997C33.2644 11.8303 31.3141 13.4342 31.3141 16.8427V25.9561H26.9305V8.0027H31.141V11.2106C31.5564 10.1417 32.2971 9.23044 33.2588 8.60571C34.2205 7.98097 35.3542 7.67438 36.4997 7.7293C36.9188 7.76576 38.9603 7.76576 39.343 7.82955Z" fill="#211D1D"/>
<path d="M57.94 18.3666H44.5068C44.8257 21.5653 46.6302 22.9961 49.1728 22.9961C50.0421 23.0604 50.9093 22.8446 51.6472 22.3807C52.3852 21.9166 52.9552 21.2284 53.2738 20.4171H57.4843C56.5729 24.0625 53.447 26.4046 49.1364 26.4046C43.8506 26.4046 40.1962 22.7592 40.1962 17.0086C40.1962 11.2581 43.7412 7.61279 49.0635 7.61279C54.5315 7.61279 57.94 11.6227 57.94 17.3277V18.3666ZM44.5432 15.3045H53.5564C53.2101 12.771 51.6426 11.0303 48.9996 11.0303C46.6758 11.0303 44.9625 12.3517 44.5432 15.3045Z" fill="#211D1D"/>
<path d="M78.7406 17.0092C78.7406 22.7142 75.6422 26.4051 70.7027 26.4051C69.6194 26.4547 68.5412 26.2302 67.5678 25.7523C66.5945 25.2744 65.7574 24.5585 65.1344 23.671V32.7845H60.7509V8.03253H64.9612V10.6116C65.5717 9.65272 66.4234 8.87105 67.4311 8.34485C68.4387 7.81864 69.5669 7.56638 70.7027 7.61332C75.6422 7.61332 78.7406 11.3042 78.7406 17.0092ZM74.2842 16.8725C74.2842 13.0813 72.5162 11.2404 69.6637 11.2404C66.8112 11.2404 65.0341 13.218 65.0341 17.0092C65.0341 20.8004 66.8021 22.7872 69.6637 22.7872C72.5253 22.7872 74.2842 20.6637 74.2842 16.8725Z" fill="#211D1D"/>
<path d="M81.4877 1.21509H85.8531V25.9853H81.4696L81.4877 1.21509Z" fill="#211D1D"/>
<path d="M88.5946 17.0086C88.5946 11.3037 92.2855 7.61279 97.7534 7.61279C103.222 7.61279 106.867 11.3037 106.867 17.0086C106.867 22.7136 103.222 26.4046 97.7534 26.4046C92.2855 26.4046 88.5946 22.7592 88.5946 17.0086ZM102.41 17.0086C102.41 13.2176 100.588 11.2399 97.7534 11.2399C94.9192 11.2399 93.0874 13.2176 93.0874 17.0086C93.0874 20.7998 94.9101 22.7866 97.7534 22.7866C100.597 22.7866 102.438 20.7998 102.438 17.0086H102.41Z" fill="#211D1D"/>
</svg>
