<svg width="23" height="12" viewBox="0 0 23 12" fill="none" xmlns="http://www.w3.org/2000/svg">
<path d="M1.29321 5.25C0.878999 5.25 0.543213 5.58579 0.543213 6C0.543213 6.41421 0.878999 6.75 1.29321 6.75V6V5.25ZM21.8235 6.53033C22.1164 6.23744 22.1164 5.76256 21.8235 5.46967L17.0506 0.696699C16.7577 0.403806 16.2828 0.403806 15.9899 0.696699C15.697 0.989593 15.697 1.46447 15.9899 1.75736L20.2326 6L15.9899 10.2426C15.697 10.5355 15.697 11.0104 15.9899 11.3033C16.2828 11.5962 16.7577 11.5962 17.0506 11.3033L21.8235 6.53033ZM1.29321 6V6.75H21.2932V6V5.25H1.29321V6Z" fill="#6A6B78"/>
</svg>
