<svg width="36" height="26" viewBox="0 0 36 26" fill="none" xmlns="http://www.w3.org/2000/svg">
<path d="M15.879 2C16.2641 2.03066 20.7234 1.98601 19.2591 3.07431C17.6352 4.2813 15.6025 4.97966 13.8072 5.87686C13.0778 6.2414 11.4449 6.83634 10.9723 7.64402C10.6027 8.27561 12.0132 8.63597 12.2807 8.72611C14.6793 9.53436 17.2787 9.81233 19.7732 10.1663C20.5015 10.2697 23.2074 10.2833 20.9959 10.7891C17.3654 11.6194 13.7522 12.3093 10.2012 13.4671C9.1166 13.8207 7.64375 14.1558 6.64189 14.7672C6.04137 15.1336 8.03341 15.0179 8.73698 15.0241C13.0022 15.0615 17.2681 15.0192 21.5333 15.0318C23.2618 15.037 25.1628 14.8938 26.884 15.1875C26.9871 15.2051 27.2061 15.2132 27.1722 15.3121C27.0349 15.7122 26.3596 15.558 25.9416 15.6235C21.7866 16.2741 17.7333 16.7684 13.6826 17.9979C11.891 18.5417 9.65156 19.1335 8.02823 20.1699C7.93152 20.2316 7.81795 20.3276 7.81795 20.4423C7.81795 20.796 8.49352 20.6758 8.84602 20.707C14.2164 21.1817 19.6529 21.2311 25.0381 21.4154C27.7222 21.5073 30.4263 21.5091 33.1069 21.6957C33.3729 21.7142 33.6572 21.6821 33.9013 21.7891C34.4133 22.0135 32.7933 21.9566 32.2346 21.9759C25.2828 22.216 18.3236 21.8894 11.3773 22.3808C8.16871 22.6077 5.01974 22.929 2 24" stroke="#0076FF" stroke-width="3" stroke-linecap="round"/>
</svg>
